<svg width="18" height="18" viewBox="0 0 18 18" fill="none" xmlns="http://www.w3.org/2000/svg">
<path fill-rule="evenodd" clip-rule="evenodd" d="M2.09575 13.4188C2.04564 13.7233 2.28055 14 2.58911 14H4.7598L4.59819 15.0173C4.50172 15.6246 4.97094 16.1742 5.5858 16.1742H7.35252C7.84416 16.1742 8.26286 15.8169 8.3401 15.3313L8.84192 12.1771H11.1102C12.5475 12.1771 13.7266 11.831 14.5669 11.0617C15.407 10.2926 15.8042 9.23895 15.8042 7.96759C15.8042 6.8936 15.4536 6.00617 14.6995 5.38702C14.4845 5.20754 14.2448 5.05744 13.9825 4.93481C13.9025 4.05176 13.5498 3.36285 12.9245 2.86809C12.2074 2.28936 11.1612 2 9.78589 2H4.3994C4.15459 2 3.94579 2.17725 3.90603 2.41881L2.09575 13.4188ZM6.48622 9.50638H9.11585C10.7028 9.50638 11.9136 9.13759 12.7482 8.4C13.4191 7.8071 13.8203 7.03091 13.9519 6.07141C13.9893 6.09869 14.0253 6.12682 14.0599 6.15577L14.0599 6.15579L14.0637 6.15887C14.5397 6.54904 14.8042 7.12463 14.8042 7.96759C14.8042 9.0178 14.4848 9.78109 13.8916 10.3241C13.2985 10.8671 12.3983 11.1771 11.1102 11.1771H8.84192C8.35029 11.1771 7.93158 11.5344 7.85434 12.02L7.35252 15.1742H5.5858L6.48622 9.50638Z" fill="#6E7491"/>
</svg>
