<svg width="32" height="32" viewBox="0 0 32 32" fill="none" xmlns="http://www.w3.org/2000/svg">
<path fill-rule="evenodd" clip-rule="evenodd" d="M6.84152 9.47874C6.57104 9.39085 6.28638 9.56688 6.24415 9.84813L5.73752 13.2229C5.66495 13.7064 5.95251 14.1714 6.41742 14.3224L23.6767 19.9303C24.4832 20.1924 25.3494 19.751 25.6114 18.9445C25.8838 18.1062 25.396 17.2112 24.5439 16.9858L19.2322 15.5804L17.9041 6.20718C17.849 5.81828 17.5772 5.49473 17.2037 5.37335C16.5777 5.16995 15.9244 5.59876 15.862 6.254L15.1019 14.2383L7.84571 12.2958L7.14239 9.79199C7.10078 9.64384 6.98787 9.52629 6.84152 9.47874ZM25.6776 22.952H5.14758V24.5313H25.6776V22.952Z" fill="#6E7491"/>
</svg>
