<svg width="400" height="192" viewBox="0 0 400 192" fill="none" xmlns="http://www.w3.org/2000/svg">
<rect x="0.5" y="0.5" width="399" height="191" rx="11.5" fill="white"/>
<g clip-path="url(#clip0_879_1542)">
<rect width="32" height="16" transform="translate(16 24)" fill="white"/>
<path d="M23.5295 33.09C23.5295 33.6167 23.3429 34.06 22.9695 34.42C22.5962 34.7733 22.0962 34.9867 21.4695 35.06V36.15H20.7695V35.07C20.3162 35.0433 19.8962 34.9567 19.5095 34.81C19.1229 34.6567 18.7829 34.4433 18.4895 34.17L18.7995 33.54C19.1462 33.8333 19.4962 34.0467 19.8495 34.18C20.2095 34.3133 20.6029 34.38 21.0295 34.38C21.5562 34.38 21.9662 34.27 22.2595 34.05C22.5529 33.83 22.6995 33.5167 22.6995 33.11C22.6995 32.87 22.6229 32.6767 22.4695 32.53C22.3229 32.3767 22.1329 32.26 21.8995 32.18C21.6729 32.0933 21.3629 32.0033 20.9695 31.91C20.4629 31.7833 20.0529 31.6567 19.7395 31.53C19.4329 31.4033 19.1695 31.21 18.9495 30.95C18.7295 30.69 18.6195 30.34 18.6195 29.9C18.6195 29.54 18.7095 29.2167 18.8895 28.93C19.0695 28.6367 19.3195 28.4 19.6395 28.22C19.9662 28.04 20.3395 27.93 20.7595 27.89V26.8H21.4595V27.89C21.8395 27.9233 22.2029 28.0167 22.5495 28.17C22.9029 28.3233 23.2029 28.52 23.4495 28.76L23.1395 29.39C22.5529 28.8433 21.8729 28.57 21.0995 28.57C20.5929 28.57 20.1929 28.6867 19.8995 28.92C19.6062 29.1467 19.4595 29.4633 19.4595 29.87C19.4595 30.15 19.5395 30.3733 19.6995 30.54C19.8662 30.7067 20.0695 30.8367 20.3095 30.93C20.5495 31.0167 20.8795 31.1133 21.2995 31.22C21.7862 31.3467 22.1762 31.4667 22.4695 31.58C22.7629 31.6933 23.0129 31.8733 23.2195 32.12C23.4262 32.36 23.5295 32.6833 23.5295 33.09ZM29.2356 34.31V35H25.3156V34.31H26.8656V28.97L25.6256 29.75L25.2456 29.12L27.0956 27.95H27.6856V34.31H29.2356ZM33.0117 35.08C32.2051 35.08 31.5917 34.7733 31.1717 34.16C30.7517 33.5467 30.5417 32.6533 30.5417 31.48C30.5417 30.3 30.7517 29.4033 31.1717 28.79C31.5917 28.1767 32.2051 27.87 33.0117 27.87C33.8184 27.87 34.4317 28.1767 34.8517 28.79C35.2717 29.3967 35.4817 30.29 35.4817 31.47C35.4817 32.65 35.2717 33.5467 34.8517 34.16C34.4317 34.7733 33.8184 35.08 33.0117 35.08ZM33.0117 34.39C33.5717 34.39 33.9851 34.1533 34.2517 33.68C34.5184 33.2067 34.6517 32.47 34.6517 31.47C34.6517 30.4633 34.5184 29.73 34.2517 29.27C33.9917 28.8033 33.5784 28.57 33.0117 28.57C32.4517 28.57 32.0384 28.8033 31.7717 29.27C31.5051 29.7367 31.3717 30.47 31.3717 31.47C31.3717 32.47 31.5051 33.2067 31.7717 33.68C32.0384 34.1533 32.4517 34.39 33.0117 34.39ZM39.0078 35.08C38.2011 35.08 37.5878 34.7733 37.1678 34.16C36.7478 33.5467 36.5378 32.6533 36.5378 31.48C36.5378 30.3 36.7478 29.4033 37.1678 28.79C37.5878 28.1767 38.2011 27.87 39.0078 27.87C39.8145 27.87 40.4278 28.1767 40.8478 28.79C41.2678 29.3967 41.4778 30.29 41.4778 31.47C41.4778 32.65 41.2678 33.5467 40.8478 34.16C40.4278 34.7733 39.8145 35.08 39.0078 35.08ZM39.0078 34.39C39.5678 34.39 39.9811 34.1533 40.2478 33.68C40.5145 33.2067 40.6478 32.47 40.6478 31.47C40.6478 30.4633 40.5145 29.73 40.2478 29.27C39.9878 28.8033 39.5745 28.57 39.0078 28.57C38.4478 28.57 38.0345 28.8033 37.7678 29.27C37.5011 29.7367 37.3678 30.47 37.3678 31.47C37.3678 32.47 37.5011 33.2067 37.7678 33.68C38.0345 34.1533 38.4478 34.39 39.0078 34.39ZM45.0039 35.08C44.1972 35.08 43.5839 34.7733 43.1639 34.16C42.7439 33.5467 42.5339 32.6533 42.5339 31.48C42.5339 30.3 42.7439 29.4033 43.1639 28.79C43.5839 28.1767 44.1972 27.87 45.0039 27.87C45.8106 27.87 46.4239 28.1767 46.8439 28.79C47.2639 29.3967 47.4739 30.29 47.4739 31.47C47.4739 32.65 47.2639 33.5467 46.8439 34.16C46.4239 34.7733 45.8106 35.08 45.0039 35.08ZM45.0039 34.39C45.5639 34.39 45.9772 34.1533 46.2439 33.68C46.5106 33.2067 46.6439 32.47 46.6439 31.47C46.6439 30.4633 46.5106 29.73 46.2439 29.27C45.9839 28.8033 45.5706 28.57 45.0039 28.57C44.4439 28.57 44.0306 28.8033 43.7639 29.27C43.4972 29.7367 43.3639 30.47 43.3639 31.47C43.3639 32.47 43.4972 33.2067 43.7639 33.68C44.0306 34.1533 44.4439 34.39 45.0039 34.39Z" fill="#7C8DB0"/>
<rect x="60" y="31.5" width="324" height="1" fill="#E9E8FC"/>
</g>
<g clip-path="url(#clip1_879_1542)">
<rect width="32" height="16" transform="translate(16 67)" fill="white"/>
<path d="M29.5256 76.09C29.5256 76.6167 29.339 77.06 28.9656 77.42C28.5923 77.7733 28.0923 77.9867 27.4656 78.06V79.15H26.7656V78.07C26.3123 78.0433 25.8923 77.9567 25.5056 77.81C25.119 77.6567 24.779 77.4433 24.4856 77.17L24.7956 76.54C25.1423 76.8333 25.4923 77.0467 25.8456 77.18C26.2056 77.3133 26.599 77.38 27.0256 77.38C27.5523 77.38 27.9623 77.27 28.2556 77.05C28.549 76.83 28.6956 76.5167 28.6956 76.11C28.6956 75.87 28.619 75.6767 28.4656 75.53C28.319 75.3767 28.129 75.26 27.8956 75.18C27.669 75.0933 27.359 75.0033 26.9656 74.91C26.459 74.7833 26.049 74.6567 25.7356 74.53C25.429 74.4033 25.1656 74.21 24.9456 73.95C24.7256 73.69 24.6156 73.34 24.6156 72.9C24.6156 72.54 24.7056 72.2167 24.8856 71.93C25.0656 71.6367 25.3156 71.4 25.6356 71.22C25.9623 71.04 26.3356 70.93 26.7556 70.89V69.8H27.4556V70.89C27.8356 70.9233 28.199 71.0167 28.5456 71.17C28.899 71.3233 29.199 71.52 29.4456 71.76L29.1356 72.39C28.549 71.8433 27.869 71.57 27.0956 71.57C26.589 71.57 26.189 71.6867 25.8956 71.92C25.6023 72.1467 25.4556 72.4633 25.4556 72.87C25.4556 73.15 25.5356 73.3733 25.6956 73.54C25.8623 73.7067 26.0656 73.8367 26.3056 73.93C26.5456 74.0167 26.8756 74.1133 27.2956 74.22C27.7823 74.3467 28.1723 74.4667 28.4656 74.58C28.759 74.6933 29.009 74.8733 29.2156 75.12C29.4223 75.36 29.5256 75.6833 29.5256 76.09ZM35.3417 70.95V71.56L32.0417 78H31.1517L34.4417 71.64H30.6817V70.95H35.3417ZM39.3078 73.58C39.7545 73.58 40.1411 73.6733 40.4678 73.86C40.8011 74.0467 41.0578 74.31 41.2378 74.65C41.4178 74.9833 41.5078 75.37 41.5078 75.81C41.5078 76.2567 41.4078 76.65 41.2078 76.99C41.0145 77.33 40.7378 77.5967 40.3778 77.79C40.0178 77.9767 39.5978 78.07 39.1178 78.07C38.6911 78.07 38.2678 77.9933 37.8478 77.84C37.4345 77.68 37.0845 77.4667 36.7978 77.2L37.1078 76.57C37.7611 77.11 38.4311 77.38 39.1178 77.38C39.6111 77.38 39.9978 77.24 40.2778 76.96C40.5578 76.68 40.6978 76.3 40.6978 75.82C40.6978 75.3533 40.5578 74.9767 40.2778 74.69C40.0045 74.4033 39.6378 74.26 39.1778 74.26C38.5045 74.26 37.9678 74.5333 37.5678 75.08H36.9978V70.95H41.2278V71.63H37.8078V74.14C37.9945 73.96 38.2145 73.8233 38.4678 73.73C38.7278 73.63 39.0078 73.58 39.3078 73.58ZM45.0039 78.08C44.1972 78.08 43.5839 77.7733 43.1639 77.16C42.7439 76.5467 42.5339 75.6533 42.5339 74.48C42.5339 73.3 42.7439 72.4033 43.1639 71.79C43.5839 71.1767 44.1972 70.87 45.0039 70.87C45.8106 70.87 46.4239 71.1767 46.8439 71.79C47.2639 72.3967 47.4739 73.29 47.4739 74.47C47.4739 75.65 47.2639 76.5467 46.8439 77.16C46.4239 77.7733 45.8106 78.08 45.0039 78.08ZM45.0039 77.39C45.5639 77.39 45.9772 77.1533 46.2439 76.68C46.5106 76.2067 46.6439 75.47 46.6439 74.47C46.6439 73.4633 46.5106 72.73 46.2439 72.27C45.9839 71.8033 45.5706 71.57 45.0039 71.57C44.4439 71.57 44.0306 71.8033 43.7639 72.27C43.4972 72.7367 43.3639 73.47 43.3639 74.47C43.3639 75.47 43.4972 76.2067 43.7639 76.68C44.0306 77.1533 44.4439 77.39 45.0039 77.39Z" fill="#7C8DB0"/>
<rect x="60" y="74.5" width="324" height="1" fill="#E9E8FC"/>
</g>
<g clip-path="url(#clip2_879_1542)">
<rect width="32" height="16" transform="translate(16 110)" fill="white"/>
<path d="M29.5256 119.09C29.5256 119.617 29.339 120.06 28.9656 120.42C28.5923 120.773 28.0923 120.987 27.4656 121.06V122.15H26.7656V121.07C26.3123 121.043 25.8923 120.957 25.5056 120.81C25.119 120.657 24.779 120.443 24.4856 120.17L24.7956 119.54C25.1423 119.833 25.4923 120.047 25.8456 120.18C26.2056 120.313 26.599 120.38 27.0256 120.38C27.5523 120.38 27.9623 120.27 28.2556 120.05C28.549 119.83 28.6956 119.517 28.6956 119.11C28.6956 118.87 28.619 118.677 28.4656 118.53C28.319 118.377 28.129 118.26 27.8956 118.18C27.669 118.093 27.359 118.003 26.9656 117.91C26.459 117.783 26.049 117.657 25.7356 117.53C25.429 117.403 25.1656 117.21 24.9456 116.95C24.7256 116.69 24.6156 116.34 24.6156 115.9C24.6156 115.54 24.7056 115.217 24.8856 114.93C25.0656 114.637 25.3156 114.4 25.6356 114.22C25.9623 114.04 26.3356 113.93 26.7556 113.89V112.8H27.4556V113.89C27.8356 113.923 28.199 114.017 28.5456 114.17C28.899 114.323 29.199 114.52 29.4456 114.76L29.1356 115.39C28.549 114.843 27.869 114.57 27.0956 114.57C26.589 114.57 26.189 114.687 25.8956 114.92C25.6023 115.147 25.4556 115.463 25.4556 115.87C25.4556 116.15 25.5356 116.373 25.6956 116.54C25.8623 116.707 26.0656 116.837 26.3056 116.93C26.5456 117.017 26.8756 117.113 27.2956 117.22C27.7823 117.347 28.1723 117.467 28.4656 117.58C28.759 117.693 29.009 117.873 29.2156 118.12C29.4223 118.36 29.5256 118.683 29.5256 119.09ZM33.3117 116.58C33.7584 116.58 34.1451 116.673 34.4717 116.86C34.8051 117.047 35.0617 117.31 35.2417 117.65C35.4217 117.983 35.5117 118.37 35.5117 118.81C35.5117 119.257 35.4117 119.65 35.2117 119.99C35.0184 120.33 34.7417 120.597 34.3817 120.79C34.0217 120.977 33.6017 121.07 33.1217 121.07C32.6951 121.07 32.2717 120.993 31.8517 120.84C31.4384 120.68 31.0884 120.467 30.8017 120.2L31.1117 119.57C31.7651 120.11 32.4351 120.38 33.1217 120.38C33.6151 120.38 34.0017 120.24 34.2817 119.96C34.5617 119.68 34.7017 119.3 34.7017 118.82C34.7017 118.353 34.5617 117.977 34.2817 117.69C34.0084 117.403 33.6417 117.26 33.1817 117.26C32.5084 117.26 31.9717 117.533 31.5717 118.08H31.0017V113.95H35.2317V114.63H31.8117V117.14C31.9984 116.96 32.2184 116.823 32.4717 116.73C32.7317 116.63 33.0117 116.58 33.3117 116.58ZM39.0078 121.08C38.2011 121.08 37.5878 120.773 37.1678 120.16C36.7478 119.547 36.5378 118.653 36.5378 117.48C36.5378 116.3 36.7478 115.403 37.1678 114.79C37.5878 114.177 38.2011 113.87 39.0078 113.87C39.8145 113.87 40.4278 114.177 40.8478 114.79C41.2678 115.397 41.4778 116.29 41.4778 117.47C41.4778 118.65 41.2678 119.547 40.8478 120.16C40.4278 120.773 39.8145 121.08 39.0078 121.08ZM39.0078 120.39C39.5678 120.39 39.9811 120.153 40.2478 119.68C40.5145 119.207 40.6478 118.47 40.6478 117.47C40.6478 116.463 40.5145 115.73 40.2478 115.27C39.9878 114.803 39.5745 114.57 39.0078 114.57C38.4478 114.57 38.0345 114.803 37.7678 115.27C37.5011 115.737 37.3678 116.47 37.3678 117.47C37.3678 118.47 37.5011 119.207 37.7678 119.68C38.0345 120.153 38.4478 120.39 39.0078 120.39ZM45.0039 121.08C44.1972 121.08 43.5839 120.773 43.1639 120.16C42.7439 119.547 42.5339 118.653 42.5339 117.48C42.5339 116.3 42.7439 115.403 43.1639 114.79C43.5839 114.177 44.1972 113.87 45.0039 113.87C45.8106 113.87 46.4239 114.177 46.8439 114.79C47.2639 115.397 47.4739 116.29 47.4739 117.47C47.4739 118.65 47.2639 119.547 46.8439 120.16C46.4239 120.773 45.8106 121.08 45.0039 121.08ZM45.0039 120.39C45.5639 120.39 45.9772 120.153 46.2439 119.68C46.5106 119.207 46.6439 118.47 46.6439 117.47C46.6439 116.463 46.5106 115.73 46.2439 115.27C45.9839 114.803 45.5706 114.57 45.0039 114.57C44.4439 114.57 44.0306 114.803 43.7639 115.27C43.4972 115.737 43.3639 116.47 43.3639 117.47C43.3639 118.47 43.4972 119.207 43.7639 119.68C44.0306 120.153 44.4439 120.39 45.0039 120.39Z" fill="#7C8DB0"/>
<rect x="60" y="117.5" width="324" height="1" fill="#E9E8FC"/>
</g>
<g clip-path="url(#clip3_879_1542)">
<rect width="32" height="16" transform="translate(16 153)" fill="white"/>
<path d="M29.5256 162.09C29.5256 162.617 29.339 163.06 28.9656 163.42C28.5923 163.773 28.0923 163.987 27.4656 164.06V165.15H26.7656V164.07C26.3123 164.043 25.8923 163.957 25.5056 163.81C25.119 163.657 24.779 163.443 24.4856 163.17L24.7956 162.54C25.1423 162.833 25.4923 163.047 25.8456 163.18C26.2056 163.313 26.599 163.38 27.0256 163.38C27.5523 163.38 27.9623 163.27 28.2556 163.05C28.549 162.83 28.6956 162.517 28.6956 162.11C28.6956 161.87 28.619 161.677 28.4656 161.53C28.319 161.377 28.129 161.26 27.8956 161.18C27.669 161.093 27.359 161.003 26.9656 160.91C26.459 160.783 26.049 160.657 25.7356 160.53C25.429 160.403 25.1656 160.21 24.9456 159.95C24.7256 159.69 24.6156 159.34 24.6156 158.9C24.6156 158.54 24.7056 158.217 24.8856 157.93C25.0656 157.637 25.3156 157.4 25.6356 157.22C25.9623 157.04 26.3356 156.93 26.7556 156.89V155.8H27.4556V156.89C27.8356 156.923 28.199 157.017 28.5456 157.17C28.899 157.323 29.199 157.52 29.4456 157.76L29.1356 158.39C28.549 157.843 27.869 157.57 27.0956 157.57C26.589 157.57 26.189 157.687 25.8956 157.92C25.6023 158.147 25.4556 158.463 25.4556 158.87C25.4556 159.15 25.5356 159.373 25.6956 159.54C25.8623 159.707 26.0656 159.837 26.3056 159.93C26.5456 160.017 26.8756 160.113 27.2956 160.22C27.7823 160.347 28.1723 160.467 28.4656 160.58C28.759 160.693 29.009 160.873 29.2156 161.12C29.4223 161.36 29.5256 161.683 29.5256 162.09ZM35.4017 163.31V164H30.8617V163.38L33.3317 160.66C33.6651 160.287 33.9051 159.953 34.0517 159.66C34.2051 159.36 34.2817 159.06 34.2817 158.76C34.2817 158.373 34.1684 158.077 33.9417 157.87C33.7151 157.663 33.3951 157.56 32.9817 157.56C32.3017 157.56 31.6351 157.83 30.9817 158.37L30.6717 157.74C30.9517 157.473 31.3017 157.263 31.7217 157.11C32.1484 156.95 32.5751 156.87 33.0017 156.87C33.6484 156.87 34.1584 157.037 34.5317 157.37C34.9117 157.703 35.1017 158.153 35.1017 158.72C35.1017 159.127 35.0084 159.517 34.8217 159.89C34.6417 160.263 34.3417 160.68 33.9217 161.14L31.9217 163.31H35.4017ZM39.3078 159.58C39.7545 159.58 40.1411 159.673 40.4678 159.86C40.8011 160.047 41.0578 160.31 41.2378 160.65C41.4178 160.983 41.5078 161.37 41.5078 161.81C41.5078 162.257 41.4078 162.65 41.2078 162.99C41.0145 163.33 40.7378 163.597 40.3778 163.79C40.0178 163.977 39.5978 164.07 39.1178 164.07C38.6911 164.07 38.2678 163.993 37.8478 163.84C37.4345 163.68 37.0845 163.467 36.7978 163.2L37.1078 162.57C37.7611 163.11 38.4311 163.38 39.1178 163.38C39.6111 163.38 39.9978 163.24 40.2778 162.96C40.5578 162.68 40.6978 162.3 40.6978 161.82C40.6978 161.353 40.5578 160.977 40.2778 160.69C40.0045 160.403 39.6378 160.26 39.1778 160.26C38.5045 160.26 37.9678 160.533 37.5678 161.08H36.9978V156.95H41.2278V157.63H37.8078V160.14C37.9945 159.96 38.2145 159.823 38.4678 159.73C38.7278 159.63 39.0078 159.58 39.3078 159.58ZM45.0039 164.08C44.1972 164.08 43.5839 163.773 43.1639 163.16C42.7439 162.547 42.5339 161.653 42.5339 160.48C42.5339 159.3 42.7439 158.403 43.1639 157.79C43.5839 157.177 44.1972 156.87 45.0039 156.87C45.8106 156.87 46.4239 157.177 46.8439 157.79C47.2639 158.397 47.4739 159.29 47.4739 160.47C47.4739 161.65 47.2639 162.547 46.8439 163.16C46.4239 163.773 45.8106 164.08 45.0039 164.08ZM45.0039 163.39C45.5639 163.39 45.9772 163.153 46.2439 162.68C46.5106 162.207 46.6439 161.47 46.6439 160.47C46.6439 159.463 46.5106 158.73 46.2439 158.27C45.9839 157.803 45.5706 157.57 45.0039 157.57C44.4439 157.57 44.0306 157.803 43.7639 158.27C43.4972 158.737 43.3639 159.47 43.3639 160.47C43.3639 161.47 43.4972 162.207 43.7639 162.68C44.0306 163.153 44.4439 163.39 45.0039 163.39Z" fill="#7C8DB0"/>
<rect x="60" y="160.5" width="324" height="1" fill="#E9E8FC"/>
</g>
<path d="M102.053 48.2802C88.1423 47.5333 78.5923 51.0877 68.0352 55.017V158.316H363.636V83.0872C354.101 91.5977 343.829 93.1925 330.792 93.1925C316.129 93.1925 312.61 69.6135 297.947 69.6135C284.119 69.6135 280.104 84.7714 266.276 84.7714C251.026 84.7714 252.738 49.403 233.431 49.403C218.768 49.403 213.977 55.017 201.173 55.017C185.924 55.017 183.578 29.7533 167.742 29.7539C150.238 29.7544 152.401 58.9468 134.897 58.9468C120.235 58.9468 115.73 49.0145 102.053 48.2802Z" fill="url(#paint0_linear_879_1542)"/>
<path d="M70.3809 55.0176C70.3809 55.0176 85.0436 48.2807 102.052 48.2807C117.302 48.2807 119.061 58.9474 134.897 58.9474C152.401 58.9474 150.241 30.0597 167.742 29.7544C184.373 29.4643 184.539 55.0186 201.173 55.0176C213.489 55.0168 220.527 49.4035 233.431 49.4035C252.737 49.4035 251.026 84.7719 266.275 84.7719C280.104 84.7719 284.118 69.614 297.947 69.614C311.437 69.614 315.542 93.193 330.791 93.193C343.829 93.193 352.927 91.5982 362.463 83.0877" stroke="#605DEC" stroke-width="2" stroke-linecap="round"/>
<rect x="0.5" y="0.5" width="399" height="191" rx="11.5" stroke="#E9E8FC"/>
<defs>
<linearGradient id="paint0_linear_879_1542" x1="216.422" y1="29.1925" x2="216.422" y2="158.315" gradientUnits="userSpaceOnUse">
<stop stop-color="#A5A4F4"/>
<stop offset="0.442708" stop-color="#C3C2F8" stop-opacity="0.328125"/>
<stop offset="1" stop-color="#D2D1FA" stop-opacity="0"/>
</linearGradient>
<clipPath id="clip0_879_1542">
<rect width="368" height="16" fill="white" transform="translate(16 24)"/>
</clipPath>
<clipPath id="clip1_879_1542">
<rect width="368" height="16" fill="white" transform="translate(16 67)"/>
</clipPath>
<clipPath id="clip2_879_1542">
<rect width="368" height="16" fill="white" transform="translate(16 110)"/>
</clipPath>
<clipPath id="clip3_879_1542">
<rect width="368" height="16" fill="white" transform="translate(16 153)"/>
</clipPath>
</defs>
</svg>
